<mxfile host="app.diagrams.net" agent="Mozilla/5.0 (Windows NT 10.0; Win64; x64) AppleWebKit/537.36 (KHTML, like Gecko) Chrome/131.0.0.0 Safari/537.36" version="25.0.3">
  <diagram id="C5RBs43oDa-KdzZeNtuy" name="Page-1">
    <mxGraphModel dx="1211" dy="637" grid="1" gridSize="10" guides="1" tooltips="1" connect="1" arrows="1" fold="1" page="1" pageScale="1" pageWidth="827" pageHeight="1169" math="0" shadow="0">
      <root>
        <mxCell id="WIyWlLk6GJQsqaUBKTNV-0" />
        <mxCell id="WIyWlLk6GJQsqaUBKTNV-1" parent="WIyWlLk6GJQsqaUBKTNV-0" />
        <mxCell id="dGEYNNW8LAhB9YcoBpNP-3" value="" style="edgeStyle=orthogonalEdgeStyle;rounded=0;orthogonalLoop=1;jettySize=auto;html=1;" edge="1" parent="WIyWlLk6GJQsqaUBKTNV-1" source="WIyWlLk6GJQsqaUBKTNV-3" target="dGEYNNW8LAhB9YcoBpNP-2">
          <mxGeometry relative="1" as="geometry" />
        </mxCell>
        <mxCell id="WIyWlLk6GJQsqaUBKTNV-3" value="工厂APK启动" style="rounded=1;whiteSpace=wrap;html=1;fontSize=12;glass=0;strokeWidth=1;shadow=0;" parent="WIyWlLk6GJQsqaUBKTNV-1" vertex="1">
          <mxGeometry x="160" y="80" width="120" height="40" as="geometry" />
        </mxCell>
        <mxCell id="dGEYNNW8LAhB9YcoBpNP-5" value="" style="edgeStyle=orthogonalEdgeStyle;rounded=0;orthogonalLoop=1;jettySize=auto;html=1;" edge="1" parent="WIyWlLk6GJQsqaUBKTNV-1" source="dGEYNNW8LAhB9YcoBpNP-2" target="dGEYNNW8LAhB9YcoBpNP-4">
          <mxGeometry relative="1" as="geometry" />
        </mxCell>
        <mxCell id="dGEYNNW8LAhB9YcoBpNP-13" value="" style="edgeStyle=orthogonalEdgeStyle;rounded=0;orthogonalLoop=1;jettySize=auto;html=1;" edge="1" parent="WIyWlLk6GJQsqaUBKTNV-1" source="dGEYNNW8LAhB9YcoBpNP-2" target="dGEYNNW8LAhB9YcoBpNP-12">
          <mxGeometry relative="1" as="geometry" />
        </mxCell>
        <mxCell id="dGEYNNW8LAhB9YcoBpNP-2" value="调用ENoteSetting获取当前的波形信息" style="rounded=1;whiteSpace=wrap;html=1;fontSize=12;glass=0;strokeWidth=1;shadow=0;" vertex="1" parent="WIyWlLk6GJQsqaUBKTNV-1">
          <mxGeometry x="160" y="160" width="120" height="40" as="geometry" />
        </mxCell>
        <mxCell id="dGEYNNW8LAhB9YcoBpNP-7" value="" style="edgeStyle=orthogonalEdgeStyle;rounded=0;orthogonalLoop=1;jettySize=auto;html=1;" edge="1" parent="WIyWlLk6GJQsqaUBKTNV-1" source="dGEYNNW8LAhB9YcoBpNP-4" target="dGEYNNW8LAhB9YcoBpNP-6">
          <mxGeometry relative="1" as="geometry" />
        </mxCell>
        <mxCell id="dGEYNNW8LAhB9YcoBpNP-4" value="是否需要更新波形" style="rhombus;whiteSpace=wrap;html=1;rounded=1;glass=0;strokeWidth=1;shadow=0;" vertex="1" parent="WIyWlLk6GJQsqaUBKTNV-1">
          <mxGeometry x="160" y="240" width="120" height="50" as="geometry" />
        </mxCell>
        <mxCell id="dGEYNNW8LAhB9YcoBpNP-9" value="" style="edgeStyle=orthogonalEdgeStyle;rounded=0;orthogonalLoop=1;jettySize=auto;html=1;" edge="1" parent="WIyWlLk6GJQsqaUBKTNV-1" source="dGEYNNW8LAhB9YcoBpNP-6" target="dGEYNNW8LAhB9YcoBpNP-8">
          <mxGeometry relative="1" as="geometry" />
        </mxCell>
        <mxCell id="dGEYNNW8LAhB9YcoBpNP-15" value="" style="edgeStyle=orthogonalEdgeStyle;rounded=0;orthogonalLoop=1;jettySize=auto;html=1;" edge="1" parent="WIyWlLk6GJQsqaUBKTNV-1" source="dGEYNNW8LAhB9YcoBpNP-6" target="dGEYNNW8LAhB9YcoBpNP-14">
          <mxGeometry relative="1" as="geometry" />
        </mxCell>
        <mxCell id="dGEYNNW8LAhB9YcoBpNP-6" value="调用ENoteSetting拷贝波形到nvcfg/firmware" style="whiteSpace=wrap;html=1;rounded=1;glass=0;strokeWidth=1;shadow=0;" vertex="1" parent="WIyWlLk6GJQsqaUBKTNV-1">
          <mxGeometry x="160" y="330" width="120" height="60" as="geometry" />
        </mxCell>
        <mxCell id="dGEYNNW8LAhB9YcoBpNP-11" value="" style="edgeStyle=orthogonalEdgeStyle;rounded=0;orthogonalLoop=1;jettySize=auto;html=1;" edge="1" parent="WIyWlLk6GJQsqaUBKTNV-1" source="dGEYNNW8LAhB9YcoBpNP-8" target="dGEYNNW8LAhB9YcoBpNP-10">
          <mxGeometry relative="1" as="geometry" />
        </mxCell>
        <mxCell id="dGEYNNW8LAhB9YcoBpNP-8" value="是否拷贝成功" style="rhombus;whiteSpace=wrap;html=1;rounded=1;glass=0;strokeWidth=1;shadow=0;" vertex="1" parent="WIyWlLk6GJQsqaUBKTNV-1">
          <mxGeometry x="145" y="440" width="150" height="50" as="geometry" />
        </mxCell>
        <mxCell id="dGEYNNW8LAhB9YcoBpNP-19" value="" style="edgeStyle=orthogonalEdgeStyle;rounded=0;orthogonalLoop=1;jettySize=auto;html=1;" edge="1" parent="WIyWlLk6GJQsqaUBKTNV-1" source="dGEYNNW8LAhB9YcoBpNP-10" target="dGEYNNW8LAhB9YcoBpNP-18">
          <mxGeometry relative="1" as="geometry" />
        </mxCell>
        <mxCell id="dGEYNNW8LAhB9YcoBpNP-10" value="调用ENoteSetting通知Surfaceflinger更新波形" style="whiteSpace=wrap;html=1;rounded=1;glass=0;strokeWidth=1;shadow=0;" vertex="1" parent="WIyWlLk6GJQsqaUBKTNV-1">
          <mxGeometry x="160" y="525" width="120" height="60" as="geometry" />
        </mxCell>
        <mxCell id="dGEYNNW8LAhB9YcoBpNP-17" style="edgeStyle=orthogonalEdgeStyle;rounded=0;orthogonalLoop=1;jettySize=auto;html=1;exitX=0;exitY=0.75;exitDx=0;exitDy=0;entryX=1;entryY=0.75;entryDx=0;entryDy=0;" edge="1" parent="WIyWlLk6GJQsqaUBKTNV-1" source="dGEYNNW8LAhB9YcoBpNP-12" target="dGEYNNW8LAhB9YcoBpNP-2">
          <mxGeometry relative="1" as="geometry" />
        </mxCell>
        <mxCell id="dGEYNNW8LAhB9YcoBpNP-12" value="从Surfaceflinger获取正在使用的波形信息" style="rounded=1;whiteSpace=wrap;html=1;fontSize=12;glass=0;strokeWidth=1;shadow=0;" vertex="1" parent="WIyWlLk6GJQsqaUBKTNV-1">
          <mxGeometry x="360" y="160" width="120" height="40" as="geometry" />
        </mxCell>
        <mxCell id="dGEYNNW8LAhB9YcoBpNP-16" style="edgeStyle=orthogonalEdgeStyle;rounded=0;orthogonalLoop=1;jettySize=auto;html=1;exitX=0;exitY=0.75;exitDx=0;exitDy=0;entryX=1;entryY=0.75;entryDx=0;entryDy=0;" edge="1" parent="WIyWlLk6GJQsqaUBKTNV-1" source="dGEYNNW8LAhB9YcoBpNP-14" target="dGEYNNW8LAhB9YcoBpNP-6">
          <mxGeometry relative="1" as="geometry" />
        </mxCell>
        <mxCell id="dGEYNNW8LAhB9YcoBpNP-14" value="先校验完整性，再拷贝波形到nvcfg/firmware" style="whiteSpace=wrap;html=1;rounded=1;glass=0;strokeWidth=1;shadow=0;" vertex="1" parent="WIyWlLk6GJQsqaUBKTNV-1">
          <mxGeometry x="360" y="330" width="120" height="60" as="geometry" />
        </mxCell>
        <mxCell id="dGEYNNW8LAhB9YcoBpNP-23" value="" style="edgeStyle=orthogonalEdgeStyle;rounded=0;orthogonalLoop=1;jettySize=auto;html=1;" edge="1" parent="WIyWlLk6GJQsqaUBKTNV-1" source="dGEYNNW8LAhB9YcoBpNP-18" target="dGEYNNW8LAhB9YcoBpNP-22">
          <mxGeometry relative="1" as="geometry" />
        </mxCell>
        <mxCell id="dGEYNNW8LAhB9YcoBpNP-18" value="校验波形完整性" style="whiteSpace=wrap;html=1;rounded=1;glass=0;strokeWidth=1;shadow=0;" vertex="1" parent="WIyWlLk6GJQsqaUBKTNV-1">
          <mxGeometry x="360" y="525" width="120" height="60" as="geometry" />
        </mxCell>
        <mxCell id="dGEYNNW8LAhB9YcoBpNP-20" value="校验波形完整性" style="whiteSpace=wrap;html=1;rounded=1;glass=0;strokeWidth=1;shadow=0;" vertex="1" parent="WIyWlLk6GJQsqaUBKTNV-1">
          <mxGeometry x="560" y="525" width="120" height="60" as="geometry" />
        </mxCell>
        <mxCell id="dGEYNNW8LAhB9YcoBpNP-25" value="" style="edgeStyle=orthogonalEdgeStyle;rounded=0;orthogonalLoop=1;jettySize=auto;html=1;" edge="1" parent="WIyWlLk6GJQsqaUBKTNV-1" source="dGEYNNW8LAhB9YcoBpNP-22" target="dGEYNNW8LAhB9YcoBpNP-24">
          <mxGeometry relative="1" as="geometry" />
        </mxCell>
        <mxCell id="dGEYNNW8LAhB9YcoBpNP-22" value="是否完整" style="rhombus;whiteSpace=wrap;html=1;rounded=1;glass=0;strokeWidth=1;shadow=0;" vertex="1" parent="WIyWlLk6GJQsqaUBKTNV-1">
          <mxGeometry x="360" y="630" width="120" height="55" as="geometry" />
        </mxCell>
        <mxCell id="dGEYNNW8LAhB9YcoBpNP-24" value="更新波形" style="whiteSpace=wrap;html=1;rounded=1;glass=0;strokeWidth=1;shadow=0;" vertex="1" parent="WIyWlLk6GJQsqaUBKTNV-1">
          <mxGeometry x="360" y="720" width="120" height="60" as="geometry" />
        </mxCell>
        <mxCell id="dGEYNNW8LAhB9YcoBpNP-26" value="先校验完整性，再拷贝波形到nvcfg/firmware" style="whiteSpace=wrap;html=1;rounded=1;glass=0;strokeWidth=1;shadow=0;" vertex="1" parent="WIyWlLk6GJQsqaUBKTNV-1">
          <mxGeometry x="120" y="880" width="120" height="60" as="geometry" />
        </mxCell>
      </root>
    </mxGraphModel>
  </diagram>
</mxfile>
